<svg width="31" height="22" viewBox="0 0 31 22" fill="none" xmlns="http://www.w3.org/2000/svg">
<path fill-rule="evenodd" clip-rule="evenodd" d="M30.9997 5C30.9997 3.80653 30.5256 2.66193 29.6817 1.81802C28.8377 0.974106 27.6932 0.5 26.4997 0.5H11.2417C10.0488 0.500653 8.90503 0.974895 8.06168 1.8185L2.06168 7.8185C1.21806 8.66237 0.744141 9.80676 0.744141 11C0.744141 12.1932 1.21806 13.3376 2.06168 14.1815L8.06168 20.1815C8.90503 21.0251 10.0488 21.4993 11.2417 21.5H26.4997C27.6932 21.5 28.8377 21.0259 29.6817 20.182C30.5256 19.3381 30.9997 18.1935 30.9997 17V5ZM20.9392 6.9395C21.0776 6.79624 21.2431 6.68196 21.4261 6.60335C21.6091 6.52473 21.8059 6.48335 22.0051 6.48162C22.2042 6.47989 22.4018 6.51785 22.5861 6.59327C22.7705 6.66869 22.9379 6.78007 23.0788 6.92091C23.2196 7.06175 23.331 7.22922 23.4064 7.41357C23.4818 7.59791 23.5198 7.79543 23.5181 7.9946C23.5163 8.19377 23.4749 8.3906 23.3963 8.57361C23.3177 8.75661 23.2034 8.92213 23.0602 9.0605L21.1207 11L23.0602 12.9395C23.3334 13.2224 23.4846 13.6013 23.4812 13.9946C23.4778 14.3879 23.32 14.7641 23.0419 15.0422C22.7638 15.3203 22.3876 15.4781 21.9943 15.4815C21.601 15.4849 21.2221 15.3337 20.9392 15.0605L18.9997 13.121L17.0602 15.0605C16.7773 15.3337 16.3984 15.4849 16.0051 15.4815C15.6118 15.4781 15.2356 15.3203 14.9575 15.0422C14.6793 14.7641 14.5216 14.3879 14.5182 13.9946C14.5148 13.6013 14.6659 13.2224 14.9392 12.9395L16.8787 11L14.9392 9.0605C14.6659 8.7776 14.5148 8.39869 14.5182 8.0054C14.5216 7.6121 14.6793 7.23588 14.9575 6.95777C15.2356 6.67966 15.6118 6.52191 16.0051 6.51849C16.3984 6.51507 16.7773 6.66626 17.0602 6.9395L18.9997 8.879L20.9392 6.9395Z" fill="white" fill-opacity="0.3"/>
</svg>
